<mxfile host="app.diagrams.net" agent="Mozilla/5.0 (Windows NT 10.0; Win64; x64) AppleWebKit/537.36 (KHTML, like Gecko) Chrome/133.0.0.0 Safari/537.36 OPR/118.0.0.0 (Edition std-2)" version="27.0.6">
  <diagram name="Página-1" id="_a5yPlvhvjvMh1GZJRpt">
    <mxGraphModel grid="1" page="1" gridSize="10" guides="1" tooltips="1" connect="1" arrows="1" fold="1" pageScale="1" pageWidth="9999" pageHeight="9999" math="0" shadow="0">
      <root>
        <mxCell id="0" />
        <mxCell id="1" parent="0" />
        <mxCell id="iHAAdWjE9QPSHCzv0lH9-47" value="" style="endArrow=block;dashed=1;endFill=0;endSize=12;html=1;rounded=0;exitX=0.5;exitY=0;exitDx=0;exitDy=0;entryX=0.25;entryY=1;entryDx=0;entryDy=0;" edge="1" parent="1" source="iHAAdWjE9QPSHCzv0lH9-141" target="iHAAdWjE9QPSHCzv0lH9-143">
          <mxGeometry width="160" relative="1" as="geometry">
            <mxPoint x="1230" y="658" as="sourcePoint" />
            <mxPoint x="1340" y="490" as="targetPoint" />
          </mxGeometry>
        </mxCell>
        <mxCell id="iHAAdWjE9QPSHCzv0lH9-49" value="" style="endArrow=block;dashed=1;endFill=0;endSize=12;html=1;rounded=0;exitX=0.5;exitY=0;exitDx=0;exitDy=0;entryX=0.5;entryY=1;entryDx=0;entryDy=0;" edge="1" parent="1" source="iHAAdWjE9QPSHCzv0lH9-140" target="iHAAdWjE9QPSHCzv0lH9-143">
          <mxGeometry width="160" relative="1" as="geometry">
            <mxPoint x="1420.0000000000005" y="658" as="sourcePoint" />
            <mxPoint x="1380" y="490" as="targetPoint" />
          </mxGeometry>
        </mxCell>
        <mxCell id="iHAAdWjE9QPSHCzv0lH9-50" value="" style="endArrow=block;dashed=1;endFill=0;endSize=12;html=1;rounded=0;exitX=0.5;exitY=0;exitDx=0;exitDy=0;entryX=0.709;entryY=1.022;entryDx=0;entryDy=0;entryPerimeter=0;" edge="1" parent="1" source="iHAAdWjE9QPSHCzv0lH9-138" target="iHAAdWjE9QPSHCzv0lH9-143">
          <mxGeometry width="160" relative="1" as="geometry">
            <mxPoint x="1609.9999999999995" y="658" as="sourcePoint" />
            <mxPoint x="1420" y="490" as="targetPoint" />
          </mxGeometry>
        </mxCell>
        <mxCell id="iHAAdWjE9QPSHCzv0lH9-59" value="" style="endArrow=diamondThin;endFill=0;endSize=24;html=1;rounded=0;exitX=0;exitY=0.5;exitDx=0;exitDy=0;entryX=1;entryY=0.25;entryDx=0;entryDy=0;edgeStyle=orthogonalEdgeStyle;" edge="1" parent="1" source="iHAAdWjE9QPSHCzv0lH9-84" target="iHAAdWjE9QPSHCzv0lH9-83">
          <mxGeometry width="160" relative="1" as="geometry">
            <mxPoint x="1168.4" y="161.9899999999999" as="sourcePoint" />
            <mxPoint x="960" y="110" as="targetPoint" />
          </mxGeometry>
        </mxCell>
        <mxCell id="iHAAdWjE9QPSHCzv0lH9-81" value="&lt;p style=&quot;margin:0px;margin-top:4px;text-align:center;&quot;&gt;&lt;i&gt;&amp;lt;&amp;lt;Abstract&amp;gt;&amp;gt;&lt;/i&gt;&lt;br&gt;&lt;b&gt;Combatente&lt;/b&gt;&lt;/p&gt;&lt;hr size=&quot;1&quot; style=&quot;border-style:solid;&quot;&gt;&lt;p style=&quot;margin:0px;margin-left:4px;&quot;&gt;+ idCombatente: int&lt;/p&gt;&lt;p style=&quot;margin:0px;margin-left:4px;&quot;&gt;+ nome: String&lt;/p&gt;&lt;p style=&quot;margin:0px;margin-left:4px;&quot;&gt;+ armadura: int&lt;/p&gt;&lt;p style=&quot;margin:0px;margin-left:4px;&quot;&gt;+ força: int&lt;/p&gt;&lt;p style=&quot;margin:0px;margin-left:4px;&quot;&gt;+ destreza: int&lt;/p&gt;&lt;p style=&quot;margin:0px;margin-left:4px;&quot;&gt;+ constituição: int&lt;/p&gt;&lt;p style=&quot;margin:0px;margin-left:4px;&quot;&gt;+ inteligência: int&lt;/p&gt;&lt;p style=&quot;margin:0px;margin-left:4px;&quot;&gt;+ sabedoria: int&lt;/p&gt;&lt;p style=&quot;margin:0px;margin-left:4px;&quot;&gt;+ carisma: int&lt;/p&gt;&lt;p style=&quot;margin:0px;margin-left:4px;&quot;&gt;+ proficiência: int&lt;/p&gt;&lt;p style=&quot;margin:0px;margin-left:4px;&quot;&gt;+ experiência: int&lt;/p&gt;&lt;p style=&quot;margin:0px;margin-left:4px;&quot;&gt;+ vida: int&lt;/p&gt;&lt;p style=&quot;margin:0px;margin-left:4px;&quot;&gt;+ ataques: List&amp;lt;Ataque&amp;gt;&lt;/p&gt;" style="verticalAlign=top;align=left;overflow=fill;html=1;whiteSpace=wrap;" vertex="1" parent="1">
          <mxGeometry x="1620" y="260" width="190" height="230" as="geometry" />
        </mxCell>
        <mxCell id="iHAAdWjE9QPSHCzv0lH9-82" value="&lt;p style=&quot;margin:0px;margin-top:4px;text-align:center;&quot;&gt;&lt;b&gt;Inimigo&lt;/b&gt;&lt;/p&gt;&lt;hr size=&quot;1&quot; style=&quot;border-style:solid;&quot;&gt;&lt;p style=&quot;margin:0px;margin-left:4px;&quot;&gt;idInimigo: int&lt;/p&gt;&lt;p style=&quot;margin:0px;margin-left:4px;&quot;&gt;+ habilidades: List&amp;lt;Habilidade&amp;gt;&lt;/p&gt;&lt;hr style=&quot;border-style: solid;&quot; size=&quot;1&quot;&gt;&lt;p style=&quot;margin: 0px 0px 0px 4px;&quot;&gt;+ adicionarInimigo(batalha) : void&lt;/p&gt;" style="verticalAlign=top;align=left;overflow=fill;html=1;whiteSpace=wrap;" vertex="1" parent="1">
          <mxGeometry x="1257.5" y="250" width="185" height="170" as="geometry" />
        </mxCell>
        <mxCell id="iHAAdWjE9QPSHCzv0lH9-83" value="&lt;p style=&quot;margin:0px;margin-top:4px;text-align:center;&quot;&gt;&lt;b&gt;Personagem&lt;/b&gt;&lt;/p&gt;&lt;hr size=&quot;1&quot; style=&quot;border-style:solid;&quot;&gt;&lt;p style=&quot;margin:0px;margin-left:4px;&quot;&gt;+ idPersonagem: int&lt;/p&gt;&lt;p style=&quot;margin:0px;margin-left:4px;&quot;&gt;+ raça: Raça&lt;/p&gt;&lt;p style=&quot;margin:0px;margin-left:4px;&quot;&gt;+ classe: Classe&lt;/p&gt;&lt;p style=&quot;margin:0px;margin-left:4px;&quot;&gt;+ arquétipo: Arquétipo&lt;/p&gt;&lt;p style=&quot;margin:0px;margin-left:4px;&quot;&gt;+ nível: int&lt;/p&gt;&lt;p style=&quot;margin:0px;margin-left:4px;&quot;&gt;+ equipamentos: Map&amp;lt; String, Equipamento&amp;gt;&lt;/p&gt;&lt;hr size=&quot;1&quot; style=&quot;border-style:solid;&quot;&gt;&lt;p style=&quot;margin:0px;margin-left:4px;&quot;&gt;+ passarVez(): void&lt;/p&gt;&lt;p style=&quot;margin:0px;margin-left:4px;&quot;&gt;+ fugir(): void&lt;/p&gt;&lt;p style=&quot;margin:0px;margin-left:4px;&quot;&gt;+ adicionaPersonagem(batalha) : void&lt;/p&gt;" style="verticalAlign=top;align=left;overflow=fill;html=1;whiteSpace=wrap;" vertex="1" parent="1">
          <mxGeometry x="1627.5" y="-40" width="175" height="210" as="geometry" />
        </mxCell>
        <mxCell id="iHAAdWjE9QPSHCzv0lH9-84" value="&lt;p style=&quot;margin:0px;margin-top:4px;text-align:center;&quot;&gt;&lt;b&gt;Equipamento&lt;/b&gt;&lt;/p&gt;&lt;hr size=&quot;1&quot; style=&quot;border-style:solid;&quot;&gt;&lt;p style=&quot;margin:0px;margin-left:4px;&quot;&gt;+ idEquipamento: int&lt;/p&gt;&lt;p style=&quot;margin:0px;margin-left:4px;&quot;&gt;+ nome: String&lt;/p&gt;&lt;p style=&quot;margin:0px;margin-left:4px;&quot;&gt;+ slot: String&lt;/p&gt;&lt;p style=&quot;margin:0px;margin-left:4px;&quot;&gt;+ valor: int&lt;/p&gt;" style="verticalAlign=top;align=left;overflow=fill;html=1;whiteSpace=wrap;" vertex="1" parent="1">
          <mxGeometry x="1940" y="-160" width="160" height="90" as="geometry" />
        </mxCell>
        <mxCell id="iHAAdWjE9QPSHCzv0lH9-87" value="&lt;p style=&quot;margin:0px;margin-top:4px;text-align:center;&quot;&gt;&lt;b&gt;Classe&lt;/b&gt;&lt;/p&gt;&lt;hr size=&quot;1&quot; style=&quot;border-style:solid;&quot;&gt;&lt;p style=&quot;margin:0px;margin-left:4px;&quot;&gt;+idClasse: int&lt;/p&gt;&lt;p style=&quot;margin:0px;margin-left:4px;&quot;&gt;+ nome: String&lt;/p&gt;&lt;p style=&quot;margin:0px;margin-left:4px;&quot;&gt;+ proficiencia: int&lt;/p&gt;&lt;p style=&quot;margin:0px;margin-left:4px;&quot;&gt;+ habilidades: List&amp;lt;Habilidade&amp;gt;&lt;/p&gt;&lt;p style=&quot;margin:0px;margin-left:4px;&quot;&gt;&lt;br&gt;&lt;/p&gt;&lt;hr size=&quot;1&quot; style=&quot;border-style:solid;&quot;&gt;&lt;p style=&quot;margin:0px;margin-left:4px;&quot;&gt;+ subirDeNivel(): void&lt;/p&gt;" style="verticalAlign=top;align=left;overflow=fill;html=1;whiteSpace=wrap;" vertex="1" parent="1">
          <mxGeometry x="1940" y="280" width="160" height="150" as="geometry" />
        </mxCell>
        <mxCell id="iHAAdWjE9QPSHCzv0lH9-88" value="&lt;p style=&quot;margin:0px;margin-top:4px;text-align:center;&quot;&gt;&lt;b&gt;Raca&lt;/b&gt;&lt;/p&gt;&lt;hr size=&quot;1&quot; style=&quot;border-style:solid;&quot;&gt;&lt;p style=&quot;margin:0px;margin-left:4px;&quot;&gt;+ idRaca: int&lt;/p&gt;&lt;p style=&quot;margin:0px;margin-left:4px;&quot;&gt;+ nome: String&lt;/p&gt;&lt;p style=&quot;margin:0px;margin-left:4px;&quot;&gt;+ atributo: Map&amp;lt;String, int&amp;gt;&lt;/p&gt;&lt;p style=&quot;margin:0px;margin-left:4px;&quot;&gt;+ habilidades: List&amp;lt;Habilidade&amp;gt;&lt;/p&gt;&lt;p style=&quot;margin:0px;margin-left:4px;&quot;&gt;&lt;br&gt;&lt;/p&gt;" style="verticalAlign=top;align=left;overflow=fill;html=1;whiteSpace=wrap;" vertex="1" parent="1">
          <mxGeometry x="1940" y="-40" width="160" height="130" as="geometry" />
        </mxCell>
        <mxCell id="iHAAdWjE9QPSHCzv0lH9-90" value="&lt;p style=&quot;margin:0px;margin-top:4px;text-align:center;&quot;&gt;&lt;b&gt;Arquetipo&lt;/b&gt;&lt;/p&gt;&lt;hr size=&quot;1&quot; style=&quot;border-style:solid;&quot;&gt;&lt;p style=&quot;margin:0px;margin-left:4px;&quot;&gt;+ idArquetipo: int&lt;/p&gt;&lt;p style=&quot;margin:0px;margin-left:4px;&quot;&gt;+ nome: String&lt;/p&gt;&lt;p style=&quot;margin:0px;margin-left:4px;&quot;&gt;+ habilidades: List&amp;lt;Habilidade&amp;gt;&lt;/p&gt;&lt;p style=&quot;margin:0px;margin-left:4px;&quot;&gt;&lt;br&gt;&lt;/p&gt;" style="verticalAlign=top;align=left;overflow=fill;html=1;whiteSpace=wrap;" vertex="1" parent="1">
          <mxGeometry x="1940" y="120" width="160" height="130" as="geometry" />
        </mxCell>
        <mxCell id="iHAAdWjE9QPSHCzv0lH9-128" value="&lt;p style=&quot;margin:0px;margin-top:4px;text-align:center;&quot;&gt;&lt;b&gt;Batalha&lt;/b&gt;&lt;/p&gt;&lt;hr size=&quot;1&quot; style=&quot;border-style:solid;&quot;&gt;&lt;p style=&quot;margin:0px;margin-left:4px;&quot;&gt;+ idBatalha: int&lt;/p&gt;&lt;p style=&quot;margin:0px;margin-left:4px;&quot;&gt;&lt;span style=&quot;background-color: transparent; color: light-dark(rgb(0, 0, 0), rgb(255, 255, 255));&quot;&gt;+ party: Grupo&amp;lt;T&amp;gt;&lt;/span&gt;&lt;/p&gt;&lt;p style=&quot;margin:0px;margin-left:4px;&quot;&gt;&lt;span style=&quot;background-color: transparent; color: light-dark(rgb(0, 0, 0), rgb(255, 255, 255));&quot;&gt;+ inimigos: Grupo&amp;lt;T&amp;gt;&lt;/span&gt;&lt;/p&gt;&lt;p style=&quot;margin:0px;margin-left:4px;&quot;&gt;+ turno: String&lt;/p&gt;&lt;p style=&quot;margin:0px;margin-left:4px;&quot;&gt;+ cenário: String&lt;/p&gt;" style="verticalAlign=top;align=left;overflow=fill;html=1;whiteSpace=wrap;" vertex="1" parent="1">
          <mxGeometry x="1270" y="-16" width="160" height="106" as="geometry" />
        </mxCell>
        <mxCell id="iHAAdWjE9QPSHCzv0lH9-138" value="&lt;p style=&quot;margin:0px;margin-top:4px;text-align:center;&quot;&gt;&lt;b&gt;Item&lt;/b&gt;&lt;/p&gt;&lt;hr size=&quot;1&quot; style=&quot;border-style:solid;&quot;&gt;&lt;p style=&quot;margin:0px;margin-left:4px;&quot;&gt;idItem: int&lt;/p&gt;&lt;p style=&quot;margin:0px;margin-left:4px;&quot;&gt;+&amp;nbsp;&lt;span style=&quot;background-color: transparent; color: light-dark(rgb(0, 0, 0), rgb(255, 255, 255));&quot;&gt;quantidade: int&lt;/span&gt;&lt;/p&gt;&lt;p style=&quot;margin: 0px 0px 0px 4px;&quot;&gt;+ quantidadeAlvos: int&lt;/p&gt;&lt;p style=&quot;margin: 0px 0px 0px 4px;&quot;&gt;+ aliado: boolean&lt;/p&gt;&lt;p style=&quot;margin: 0px 0px 0px 4px;&quot;&gt;+ inimigo: boolean&lt;/p&gt;&lt;p style=&quot;margin: 0px 0px 0px 4px;&quot;&gt;+ self: boolean&lt;/p&gt;&lt;p style=&quot;margin: 0px 0px 0px 4px;&quot;&gt;+ descricao: String&lt;/p&gt;&lt;hr size=&quot;1&quot; style=&quot;border-style:solid;&quot;&gt;&lt;p style=&quot;margin:0px;margin-left:4px;&quot;&gt;+ executar(idCombatente): void&lt;/p&gt;" style="verticalAlign=top;align=left;overflow=fill;html=1;whiteSpace=wrap;" vertex="1" parent="1">
          <mxGeometry x="1480" y="663" width="160" height="177" as="geometry" />
        </mxCell>
        <mxCell id="iHAAdWjE9QPSHCzv0lH9-140" value="&lt;p style=&quot;margin:0px;margin-top:4px;text-align:center;&quot;&gt;&lt;b&gt;Habilidade&lt;/b&gt;&lt;/p&gt;&lt;hr size=&quot;1&quot; style=&quot;border-style:solid;&quot;&gt;&lt;p style=&quot;margin:0px;margin-left:4px;&quot;&gt;&lt;span style=&quot;background-color: transparent; color: light-dark(rgb(0, 0, 0), rgb(255, 255, 255));&quot;&gt;idHabilidade: int&lt;/span&gt;&lt;/p&gt;&lt;p style=&quot;margin:0px;margin-left:4px;&quot;&gt;&lt;span style=&quot;background-color: transparent; color: light-dark(rgb(0, 0, 0), rgb(255, 255, 255));&quot;&gt;+&amp;nbsp;&lt;/span&gt;&lt;span style=&quot;background-color: transparent; color: light-dark(rgb(0, 0, 0), rgb(255, 255, 255));&quot;&gt;custo: int&lt;/span&gt;&lt;/p&gt;&lt;p style=&quot;margin: 0px 0px 0px 4px;&quot;&gt;+ quantidadeAlvos: int&lt;/p&gt;&lt;p style=&quot;margin: 0px 0px 0px 4px;&quot;&gt;+ aliado: boolean&lt;/p&gt;&lt;p style=&quot;margin: 0px 0px 0px 4px;&quot;&gt;+ inimigo: boolean&lt;/p&gt;&lt;p style=&quot;margin: 0px 0px 0px 4px;&quot;&gt;+ self: boolean&lt;/p&gt;&lt;p style=&quot;margin: 0px 0px 0px 4px;&quot;&gt;+ descricao: String&lt;/p&gt;&lt;hr size=&quot;1&quot; style=&quot;border-style:solid;&quot;&gt;&lt;p style=&quot;margin:0px;margin-left:4px;&quot;&gt;+&amp;nbsp;&lt;span style=&quot;background-color: transparent; color: light-dark(rgb(0, 0, 0), rgb(255, 255, 255));&quot;&gt;executar(idCombatente): void&lt;/span&gt;&lt;/p&gt;" style="verticalAlign=top;align=left;overflow=fill;html=1;whiteSpace=wrap;" vertex="1" parent="1">
          <mxGeometry x="1300" y="663" width="160" height="177" as="geometry" />
        </mxCell>
        <mxCell id="iHAAdWjE9QPSHCzv0lH9-141" value="&lt;p style=&quot;margin:0px;margin-top:4px;text-align:center;&quot;&gt;&lt;b&gt;Arma&lt;/b&gt;&lt;/p&gt;&lt;hr size=&quot;1&quot; style=&quot;border-style:solid;&quot;&gt;&lt;p style=&quot;margin:0px;margin-left:4px;&quot;&gt;idArma: int&lt;/p&gt;&lt;p style=&quot;margin:0px;margin-left:4px;&quot;&gt;+ tipo: String&lt;/p&gt;&lt;p style=&quot;margin:0px;margin-left:4px;&quot;&gt;+ dano: int&lt;/p&gt;&lt;hr size=&quot;1&quot; style=&quot;border-style:solid;&quot;&gt;&lt;p style=&quot;margin:0px;margin-left:4px;&quot;&gt;+&amp;nbsp;&lt;span style=&quot;background-color: transparent; color: light-dark(rgb(0, 0, 0), rgb(255, 255, 255));&quot;&gt;executar(idCombatente): void&lt;/span&gt;&lt;/p&gt;" style="verticalAlign=top;align=left;overflow=fill;html=1;whiteSpace=wrap;" vertex="1" parent="1">
          <mxGeometry x="1120" y="663" width="160" height="127" as="geometry" />
        </mxCell>
        <mxCell id="iHAAdWjE9QPSHCzv0lH9-142" value="" style="endArrow=open;endFill=1;endSize=12;html=1;rounded=0;exitX=0;exitY=0.5;exitDx=0;exitDy=0;entryX=1;entryY=0.5;entryDx=0;entryDy=0;edgeStyle=orthogonalEdgeStyle;" edge="1" parent="1" source="iHAAdWjE9QPSHCzv0lH9-81" target="iHAAdWjE9QPSHCzv0lH9-143">
          <mxGeometry width="160" relative="1" as="geometry">
            <mxPoint x="1350" y="390" as="sourcePoint" />
            <mxPoint x="1520" y="420" as="targetPoint" />
          </mxGeometry>
        </mxCell>
        <mxCell id="iHAAdWjE9QPSHCzv0lH9-143" value="&lt;p style=&quot;margin:0px;margin-top:4px;text-align:center;&quot;&gt;&lt;i&gt;&amp;lt;&amp;lt;Interface&amp;gt;&amp;gt;&lt;/i&gt;&lt;br&gt;&lt;b&gt;Acao&lt;/b&gt;&lt;/p&gt;&lt;hr size=&quot;1&quot; style=&quot;border-style:solid;&quot;&gt;&lt;p style=&quot;margin:0px;margin-left:4px;&quot;&gt;+ idAcao: int&lt;/p&gt;&lt;p style=&quot;margin:0px;margin-left:4px;&quot;&gt;+ nome: String&lt;/p&gt;&lt;hr size=&quot;1&quot; style=&quot;border-style:solid;&quot;&gt;&lt;p style=&quot;margin:0px;margin-left:4px;&quot;&gt;+ executar(idCombatente): void&lt;/p&gt;" style="verticalAlign=top;align=left;overflow=fill;html=1;whiteSpace=wrap;" vertex="1" parent="1">
          <mxGeometry x="1280" y="460" width="190" height="120" as="geometry" />
        </mxCell>
        <mxCell id="iHAAdWjE9QPSHCzv0lH9-144" value="" style="endArrow=diamondThin;endFill=0;endSize=24;html=1;rounded=0;exitX=0;exitY=0.5;exitDx=0;exitDy=0;entryX=1;entryY=0.75;entryDx=0;entryDy=0;edgeStyle=orthogonalEdgeStyle;" edge="1" parent="1" source="iHAAdWjE9QPSHCzv0lH9-90" target="iHAAdWjE9QPSHCzv0lH9-83">
          <mxGeometry width="160" relative="1" as="geometry">
            <mxPoint x="1880" y="270" as="sourcePoint" />
            <mxPoint x="2040" y="270" as="targetPoint" />
          </mxGeometry>
        </mxCell>
        <mxCell id="iHAAdWjE9QPSHCzv0lH9-145" value="" style="endArrow=diamondThin;endFill=1;endSize=24;html=1;rounded=0;entryX=1;entryY=0.5;entryDx=0;entryDy=0;exitX=0;exitY=0.5;exitDx=0;exitDy=0;edgeStyle=orthogonalEdgeStyle;" edge="1" parent="1" source="iHAAdWjE9QPSHCzv0lH9-88" target="iHAAdWjE9QPSHCzv0lH9-83">
          <mxGeometry width="160" relative="1" as="geometry">
            <mxPoint x="1880" y="150" as="sourcePoint" />
            <mxPoint x="2040" y="150" as="targetPoint" />
          </mxGeometry>
        </mxCell>
        <mxCell id="iHAAdWjE9QPSHCzv0lH9-146" value="" style="endArrow=diamondThin;endFill=1;endSize=24;html=1;rounded=0;exitX=0;exitY=0.5;exitDx=0;exitDy=0;entryX=0.75;entryY=1;entryDx=0;entryDy=0;edgeStyle=orthogonalEdgeStyle;" edge="1" parent="1">
          <mxGeometry width="160" relative="1" as="geometry">
            <mxPoint x="2005" y="355" as="sourcePoint" />
            <mxPoint x="1823.75" y="170" as="targetPoint" />
            <Array as="points">
              <mxPoint x="1925" y="355" />
              <mxPoint x="1925" y="230" />
              <mxPoint x="1820" y="230" />
            </Array>
          </mxGeometry>
        </mxCell>
        <mxCell id="JM1ONhOtBjRij3e5JYiU-17" value="" style="edgeStyle=orthogonalEdgeStyle;rounded=0;orthogonalLoop=1;jettySize=auto;html=1;endArrow=none;startFill=0;" edge="1" parent="1" source="VGVoNSdA1kauDRPLX8II-2">
          <mxGeometry relative="1" as="geometry">
            <mxPoint x="490" y="-520" as="targetPoint" />
          </mxGeometry>
        </mxCell>
        <mxCell id="VGVoNSdA1kauDRPLX8II-2" value="&lt;p style=&quot;margin:0px;margin-top:4px;text-align:center;&quot;&gt;&lt;i&gt;Menu&lt;/i&gt;&lt;/p&gt;&lt;hr size=&quot;1&quot; style=&quot;border-style:solid;&quot;&gt;&lt;p style=&quot;margin:0px;margin-left:4px;&quot;&gt;+ iniciarNovoBatalha(): void&amp;nbsp; &amp;nbsp; &amp;nbsp; &amp;nbsp;&lt;/p&gt;&lt;p style=&quot;margin:0px;margin-left:4px;&quot;&gt;+ carregarBatalha(slot: int): Batalha&lt;/p&gt;&lt;p style=&quot;margin:0px;margin-left:4px;&quot;&gt;+ abrirConfiguracoes(): void&amp;nbsp;&lt;/p&gt;&lt;p style=&quot;margin:0px;margin-left:4px;&quot;&gt;+ mostrarRegras(): void&lt;/p&gt;&lt;p style=&quot;margin:0px;margin-left:4px;&quot;&gt;+ criarCombatente(): Combatente&lt;/p&gt;&lt;p style=&quot;margin:0px;margin-left:4px;&quot;&gt;+ sair(): void&lt;/p&gt;&lt;p style=&quot;margin:0px;margin-left:4px;&quot;&gt;+ gerenciarGrupoPersonagens(): void&lt;/p&gt;&lt;p style=&quot;margin:0px;margin-left:4px;&quot;&gt;+ criarGrupo()&lt;/p&gt;" style="verticalAlign=top;align=left;overflow=fill;html=1;whiteSpace=wrap;" vertex="1" parent="1">
          <mxGeometry x="860" y="-21.5" width="200" height="171.5" as="geometry" />
        </mxCell>
        <mxCell id="VGVoNSdA1kauDRPLX8II-4" value="&lt;p style=&quot;margin:0px;margin-top:4px;text-align:center;&quot;&gt;&lt;i&gt;Regras do Batalha&lt;/i&gt;&lt;/p&gt;&lt;hr size=&quot;1&quot; style=&quot;border-style:solid;&quot;&gt;&lt;p style=&quot;margin:0px;margin-left:4px;&quot;&gt;+ regras: String&lt;/p&gt;&lt;hr&gt;&amp;nbsp;votlarAoMenu() void" style="verticalAlign=top;align=left;overflow=fill;html=1;whiteSpace=wrap;" vertex="1" parent="1">
          <mxGeometry x="570" y="-200" width="190" height="105" as="geometry" />
        </mxCell>
        <mxCell id="VGVoNSdA1kauDRPLX8II-14" value="&lt;p style=&quot;margin:0px;margin-top:4px;text-align:center;&quot;&gt;&lt;i&gt;Configurações&lt;/i&gt;&lt;/p&gt;&lt;hr size=&quot;1&quot; style=&quot;border-style:solid;&quot;&gt;&lt;p style=&quot;margin:0px;margin-left:4px;&quot;&gt;+ Volume: int&lt;/p&gt;&lt;p style=&quot;margin:0px;margin-left:4px;&quot;&gt;+ ativarVolume: boolean&lt;/p&gt;&lt;p style=&quot;margin:0px;margin-left:4px;&quot;&gt;+ Dificuldade: String&lt;/p&gt;&lt;hr&gt;&amp;nbsp;votlarAoMenu() void" style="verticalAlign=top;align=left;overflow=fill;html=1;whiteSpace=wrap;" vertex="1" parent="1">
          <mxGeometry x="860" y="-240" width="190" height="105" as="geometry" />
        </mxCell>
        <mxCell id="VGVoNSdA1kauDRPLX8II-16" value="" style="endArrow=open;endFill=1;endSize=12;html=1;rounded=0;entryX=0.5;entryY=1;entryDx=0;entryDy=0;" edge="1" parent="1">
          <mxGeometry width="160" relative="1" as="geometry">
            <mxPoint x="1710" y="920" as="sourcePoint" />
            <mxPoint x="1710" y="490" as="targetPoint" />
          </mxGeometry>
        </mxCell>
        <mxCell id="VGVoNSdA1kauDRPLX8II-19" value="" style="endArrow=none;html=1;rounded=0;" edge="1" parent="1">
          <mxGeometry width="50" height="50" relative="1" as="geometry">
            <mxPoint x="960" y="920" as="sourcePoint" />
            <mxPoint x="1710" y="920" as="targetPoint" />
          </mxGeometry>
        </mxCell>
        <mxCell id="VGVoNSdA1kauDRPLX8II-21" value="" style="endArrow=none;html=1;rounded=0;exitX=0.527;exitY=1.003;exitDx=0;exitDy=0;exitPerimeter=0;" edge="1" parent="1" source="VGVoNSdA1kauDRPLX8II-2">
          <mxGeometry width="50" height="50" relative="1" as="geometry">
            <mxPoint x="960" y="130" as="sourcePoint" />
            <mxPoint x="960" y="920" as="targetPoint" />
          </mxGeometry>
        </mxCell>
        <mxCell id="oElnw2Wf1D5d3-JwbpOK-4" value="" style="endArrow=diamondThin;endFill=0;endSize=24;html=1;rounded=0;exitX=0.5;exitY=1;exitDx=0;exitDy=0;entryX=0.5;entryY=0;entryDx=0;entryDy=0;" edge="1" parent="1" source="VGVoNSdA1kauDRPLX8II-14" target="VGVoNSdA1kauDRPLX8II-2">
          <mxGeometry width="160" relative="1" as="geometry">
            <mxPoint x="980" y="40" as="sourcePoint" />
            <mxPoint x="1140" y="40" as="targetPoint" />
          </mxGeometry>
        </mxCell>
        <mxCell id="oElnw2Wf1D5d3-JwbpOK-5" value="" style="endArrow=diamondThin;endFill=0;endSize=24;html=1;rounded=0;exitX=1;exitY=1;exitDx=0;exitDy=0;entryX=0;entryY=0;entryDx=0;entryDy=0;" edge="1" parent="1" source="VGVoNSdA1kauDRPLX8II-4" target="VGVoNSdA1kauDRPLX8II-2">
          <mxGeometry width="160" relative="1" as="geometry">
            <mxPoint x="1110" y="210" as="sourcePoint" />
            <mxPoint x="1270" y="210" as="targetPoint" />
          </mxGeometry>
        </mxCell>
        <mxCell id="oElnw2Wf1D5d3-JwbpOK-6" value="" style="endArrow=diamondThin;endFill=0;endSize=24;html=1;rounded=0;exitX=1;exitY=0.5;exitDx=0;exitDy=0;entryX=-0.019;entryY=0.623;entryDx=0;entryDy=0;entryPerimeter=0;edgeStyle=orthogonalEdgeStyle;" edge="1" parent="1" source="VGVoNSdA1kauDRPLX8II-2" target="iHAAdWjE9QPSHCzv0lH9-128">
          <mxGeometry width="160" relative="1" as="geometry">
            <mxPoint x="1110" y="40" as="sourcePoint" />
            <mxPoint x="1270" y="40" as="targetPoint" />
          </mxGeometry>
        </mxCell>
        <mxCell id="JM1ONhOtBjRij3e5JYiU-7" value="Grupo&amp;lt;T extends Combatente&amp;gt;" style="swimlane;fontStyle=1;align=center;verticalAlign=top;childLayout=stackLayout;horizontal=1;startSize=26;horizontalStack=0;resizeParent=1;resizeParentMax=0;resizeLast=0;collapsible=1;marginBottom=0;whiteSpace=wrap;html=1;" vertex="1" parent="1">
          <mxGeometry x="1600" y="-420" width="230" height="268" as="geometry">
            <mxRectangle x="220" y="60" width="70" height="30" as="alternateBounds" />
          </mxGeometry>
        </mxCell>
        <mxCell id="JM1ONhOtBjRij3e5JYiU-8" value="&lt;div&gt;+ idGrupo: int&lt;/div&gt;+ grupo: List&amp;lt;T&amp;gt;&lt;br&gt;+ tipo: boolean" style="text;strokeColor=none;fillColor=none;align=left;verticalAlign=top;spacingLeft=4;spacingRight=4;overflow=hidden;rotatable=0;points=[[0,0.5],[1,0.5]];portConstraint=eastwest;whiteSpace=wrap;html=1;" vertex="1" parent="JM1ONhOtBjRij3e5JYiU-7">
          <mxGeometry y="26" width="230" height="104" as="geometry" />
        </mxCell>
        <mxCell id="JM1ONhOtBjRij3e5JYiU-9" value="" style="line;strokeWidth=1;fillColor=none;align=left;verticalAlign=middle;spacingTop=-1;spacingLeft=3;spacingRight=3;rotatable=0;labelPosition=right;points=[];portConstraint=eastwest;strokeColor=inherit;" vertex="1" parent="JM1ONhOtBjRij3e5JYiU-7">
          <mxGeometry y="130" width="230" height="8" as="geometry" />
        </mxCell>
        <mxCell id="JM1ONhOtBjRij3e5JYiU-10" value="&lt;div&gt;&lt;span style=&quot;background-color: transparent; color: light-dark(rgb(0, 0, 0), rgb(255, 255, 255));&quot;&gt;+ adicionarCombatente&lt;/span&gt;&lt;span style=&quot;background-color: transparent; color: light-dark(rgb(0, 0, 0), rgb(255, 255, 255));&quot;&gt;(T&lt;/span&gt;&lt;span style=&quot;background-color: transparent; color: light-dark(rgb(0, 0, 0), rgb(255, 255, 255));&quot;&gt;): void&lt;/span&gt;&lt;/div&gt;&lt;div&gt;+ editarCombatente&lt;span style=&quot;background-color: transparent; color: light-dark(rgb(0, 0, 0), rgb(255, 255, 255));&quot;&gt;(IdCombatente: int&lt;/span&gt;&lt;span style=&quot;background-color: transparent; color: light-dark(rgb(0, 0, 0), rgb(255, 255, 255));&quot;&gt;): void&lt;/span&gt;&lt;div&gt;&lt;span style=&quot;background-color: transparent; color: light-dark(rgb(0, 0, 0), rgb(255, 255, 255));&quot;&gt;+ excluirCombatente(Grupo&amp;lt;T&amp;gt;, idCombatente: int): Grupo&amp;lt;T&amp;gt;&lt;/span&gt;&lt;/div&gt;&lt;/div&gt;&lt;div&gt;+ validarGrupo(grupo: Grupo): boolean&lt;span style=&quot;background-color: transparent; color: light-dark(rgb(0, 0, 0), rgb(255, 255, 255));&quot;&gt;&lt;/span&gt;&lt;/div&gt;&lt;div&gt;+ recuperaPersonagens(): List&amp;lt;Personagem&amp;gt;&lt;/div&gt;" style="text;strokeColor=none;fillColor=none;align=left;verticalAlign=top;spacingLeft=4;spacingRight=4;overflow=hidden;rotatable=0;points=[[0,0.5],[1,0.5]];portConstraint=eastwest;whiteSpace=wrap;html=1;" vertex="1" parent="JM1ONhOtBjRij3e5JYiU-7">
          <mxGeometry y="138" width="230" height="130" as="geometry" />
        </mxCell>
        <mxCell id="JM1ONhOtBjRij3e5JYiU-13" value="" style="endArrow=diamondThin;endFill=1;endSize=24;html=1;rounded=0;exitX=0.5;exitY=0;exitDx=0;exitDy=0;" edge="1" parent="1" source="iHAAdWjE9QPSHCzv0lH9-83" target="JM1ONhOtBjRij3e5JYiU-10">
          <mxGeometry width="160" relative="1" as="geometry">
            <mxPoint x="1800" y="-96" as="sourcePoint" />
            <mxPoint x="1650" y="-70" as="targetPoint" />
          </mxGeometry>
        </mxCell>
        <mxCell id="JM1ONhOtBjRij3e5JYiU-20" value="" style="endArrow=none;html=1;rounded=0;startFill=0;" edge="1" parent="1">
          <mxGeometry width="50" height="50" relative="1" as="geometry">
            <mxPoint x="490" y="-520" as="sourcePoint" />
            <mxPoint x="1720" y="-520" as="targetPoint" />
          </mxGeometry>
        </mxCell>
        <mxCell id="JM1ONhOtBjRij3e5JYiU-23" value="" style="endArrow=classic;html=1;rounded=0;entryX=0.521;entryY=-0.006;entryDx=0;entryDy=0;entryPerimeter=0;" edge="1" parent="1" target="JM1ONhOtBjRij3e5JYiU-7">
          <mxGeometry width="50" height="50" relative="1" as="geometry">
            <mxPoint x="1720" y="-520" as="sourcePoint" />
            <mxPoint x="1730" y="-450" as="targetPoint" />
          </mxGeometry>
        </mxCell>
        <mxCell id="mDxcm6M0Cwam5z7Qv1Eb-4" value="GrupoController" style="swimlane;fontStyle=1;align=center;verticalAlign=top;childLayout=stackLayout;horizontal=1;startSize=26;horizontalStack=0;resizeParent=1;resizeParentMax=0;resizeLast=0;collapsible=1;marginBottom=0;whiteSpace=wrap;html=1;" vertex="1" parent="1">
          <mxGeometry x="1960" y="-370" width="220" height="120" as="geometry" />
        </mxCell>
        <mxCell id="mDxcm6M0Cwam5z7Qv1Eb-5" value="&lt;div&gt;&lt;div&gt;&lt;span style=&quot;background-color: transparent; color: light-dark(rgb(0, 0, 0), rgb(255, 255, 255));&quot;&gt;+ salvarGrupo(grupo: Grupo): void&lt;/span&gt;&lt;/div&gt;&lt;/div&gt;&lt;div&gt;&lt;div&gt;+ buscarGrupo(idGrupo: int): Grupo&lt;/div&gt;&lt;div&gt;+ deletarGrupo(idGrupo: int): void&lt;/div&gt;&lt;div&gt;+ listarGrupos(): List&amp;lt;Grupo&amp;gt;&lt;/div&gt;&lt;/div&gt;" style="text;strokeColor=none;fillColor=none;align=left;verticalAlign=top;spacingLeft=4;spacingRight=4;overflow=hidden;rotatable=0;points=[[0,0.5],[1,0.5]];portConstraint=eastwest;whiteSpace=wrap;html=1;" vertex="1" parent="mDxcm6M0Cwam5z7Qv1Eb-4">
          <mxGeometry y="26" width="220" height="94" as="geometry" />
        </mxCell>
        <mxCell id="mDxcm6M0Cwam5z7Qv1Eb-9" value="" style="endArrow=open;endFill=1;endSize=12;html=1;rounded=0;exitX=0;exitY=0.5;exitDx=0;exitDy=0;entryX=1.012;entryY=0.923;entryDx=0;entryDy=0;entryPerimeter=0;" edge="1" parent="1" source="mDxcm6M0Cwam5z7Qv1Eb-5" target="JM1ONhOtBjRij3e5JYiU-8">
          <mxGeometry width="160" relative="1" as="geometry">
            <mxPoint x="1985" y="-331.5" as="sourcePoint" />
            <mxPoint x="1840" y="-286.5" as="targetPoint" />
          </mxGeometry>
        </mxCell>
        <mxCell id="mDxcm6M0Cwam5z7Qv1Eb-11" value="InimigoController" style="swimlane;fontStyle=1;align=center;verticalAlign=top;childLayout=stackLayout;horizontal=1;startSize=26;horizontalStack=0;resizeParent=1;resizeParentMax=0;resizeLast=0;collapsible=1;marginBottom=0;whiteSpace=wrap;html=1;" vertex="1" parent="1">
          <mxGeometry x="1010" y="210" width="170" height="150" as="geometry" />
        </mxCell>
        <mxCell id="mDxcm6M0Cwam5z7Qv1Eb-12" value="&lt;div&gt;&lt;div&gt;&lt;span style=&quot;background-color: transparent; color: light-dark(rgb(0, 0, 0), rgb(255, 255, 255));&quot;&gt;+ salvarInimigo(inimigo: Inimigo): void&lt;/span&gt;&lt;/div&gt;&lt;/div&gt;&lt;div&gt;&lt;div&gt;+ buscarInimigo(idInimigo: int): Inimigo&lt;/div&gt;&lt;div&gt;+ deletarInimigo(idInimigo): void&lt;/div&gt;&lt;div&gt;+ listarInimigos(): List&amp;lt;Inimigos&amp;gt;&lt;/div&gt;&lt;div&gt;&lt;div&gt;&lt;br&gt;&lt;/div&gt;&lt;/div&gt;&lt;/div&gt;" style="text;strokeColor=none;fillColor=none;align=left;verticalAlign=top;spacingLeft=4;spacingRight=4;overflow=hidden;rotatable=0;points=[[0,0.5],[1,0.5]];portConstraint=eastwest;whiteSpace=wrap;html=1;" vertex="1" parent="mDxcm6M0Cwam5z7Qv1Eb-11">
          <mxGeometry y="26" width="170" height="124" as="geometry" />
        </mxCell>
        <mxCell id="mDxcm6M0Cwam5z7Qv1Eb-14" value="" style="endArrow=open;endFill=1;endSize=12;html=1;rounded=0;exitX=1;exitY=0.5;exitDx=0;exitDy=0;entryX=-0.004;entryY=0.561;entryDx=0;entryDy=0;entryPerimeter=0;edgeStyle=orthogonalEdgeStyle;" edge="1" parent="1" source="mDxcm6M0Cwam5z7Qv1Eb-12" target="iHAAdWjE9QPSHCzv0lH9-82">
          <mxGeometry width="160" relative="1" as="geometry">
            <mxPoint x="1225" y="330" as="sourcePoint" />
            <mxPoint x="1080" y="375" as="targetPoint" />
          </mxGeometry>
        </mxCell>
        <mxCell id="mDxcm6M0Cwam5z7Qv1Eb-15" value="PersonagemController" style="swimlane;fontStyle=1;align=center;verticalAlign=top;childLayout=stackLayout;horizontal=1;startSize=26;horizontalStack=0;resizeParent=1;resizeParentMax=0;resizeLast=0;collapsible=1;marginBottom=0;whiteSpace=wrap;html=1;" vertex="1" parent="1">
          <mxGeometry x="1320" y="-300" width="240" height="136" as="geometry" />
        </mxCell>
        <mxCell id="mDxcm6M0Cwam5z7Qv1Eb-16" value="&lt;div&gt;&lt;div&gt;&lt;span style=&quot;background-color: transparent; color: light-dark(rgb(0, 0, 0), rgb(255, 255, 255));&quot;&gt;+ salvarPersonagem(personagem: Personagem): void&lt;/span&gt;&lt;/div&gt;&lt;/div&gt;&lt;div&gt;&lt;div&gt;+ buscarPersonagem(idPersonagem: int): Personagem&lt;/div&gt;&lt;div&gt;+ deletarPersonagem(idPersonagem: int): void&lt;/div&gt;&lt;div&gt;+ listarPersonagem(): List&amp;lt;Personagem&amp;gt;&lt;/div&gt;&lt;/div&gt;" style="text;strokeColor=none;fillColor=none;align=left;verticalAlign=top;spacingLeft=4;spacingRight=4;overflow=hidden;rotatable=0;points=[[0,0.5],[1,0.5]];portConstraint=eastwest;whiteSpace=wrap;html=1;" vertex="1" parent="mDxcm6M0Cwam5z7Qv1Eb-15">
          <mxGeometry y="26" width="240" height="110" as="geometry" />
        </mxCell>
        <mxCell id="L3V3rXhDOu2ZNW8dbt9Z-6" value="Extends" style="endArrow=block;endSize=16;endFill=0;html=1;rounded=0;exitX=0.5;exitY=1;exitDx=0;exitDy=0;entryX=0.5;entryY=0;entryDx=0;entryDy=0;" edge="1" parent="1" source="iHAAdWjE9QPSHCzv0lH9-83" target="iHAAdWjE9QPSHCzv0lH9-81">
          <mxGeometry width="160" relative="1" as="geometry">
            <mxPoint x="660" y="374.28999999999996" as="sourcePoint" />
            <mxPoint x="820" y="374.28999999999996" as="targetPoint" />
          </mxGeometry>
        </mxCell>
        <mxCell id="L3V3rXhDOu2ZNW8dbt9Z-7" value="Extends" style="endArrow=block;endSize=16;endFill=0;html=1;rounded=0;entryX=-0.007;entryY=0.142;entryDx=0;entryDy=0;entryPerimeter=0;exitX=0.982;exitY=0.539;exitDx=0;exitDy=0;exitPerimeter=0;edgeStyle=orthogonalEdgeStyle;" edge="1" parent="1" source="iHAAdWjE9QPSHCzv0lH9-82" target="iHAAdWjE9QPSHCzv0lH9-81">
          <mxGeometry width="160" relative="1" as="geometry">
            <mxPoint x="1440" y="340" as="sourcePoint" />
            <mxPoint x="1600" y="340" as="targetPoint" />
          </mxGeometry>
        </mxCell>
        <mxCell id="mDxcm6M0Cwam5z7Qv1Eb-18" value="" style="endArrow=open;endFill=1;endSize=12;html=1;rounded=0;edgeStyle=orthogonalEdgeStyle;exitX=0.521;exitY=1.009;exitDx=0;exitDy=0;exitPerimeter=0;entryX=0.004;entryY=0.233;entryDx=0;entryDy=0;entryPerimeter=0;" edge="1" parent="1" source="mDxcm6M0Cwam5z7Qv1Eb-16" target="iHAAdWjE9QPSHCzv0lH9-83">
          <mxGeometry width="160" relative="1" as="geometry">
            <mxPoint x="1460" y="-100" as="sourcePoint" />
            <mxPoint x="1590" y="10" as="targetPoint" />
            <Array as="points">
              <mxPoint x="1445" y="-40" />
              <mxPoint x="1520" y="-40" />
              <mxPoint x="1520" />
              <mxPoint x="1634" />
              <mxPoint x="1634" y="2" />
            </Array>
          </mxGeometry>
        </mxCell>
        <mxCell id="mDxcm6M0Cwam5z7Qv1Eb-23" value="BatalhaController" style="swimlane;fontStyle=1;align=center;verticalAlign=top;childLayout=stackLayout;horizontal=1;startSize=26;horizontalStack=0;resizeParent=1;resizeParentMax=0;resizeLast=0;collapsible=1;marginBottom=0;whiteSpace=wrap;html=1;" vertex="1" parent="1">
          <mxGeometry x="1115" y="-290" width="170" height="156" as="geometry" />
        </mxCell>
        <mxCell id="mDxcm6M0Cwam5z7Qv1Eb-24" value="&lt;div&gt;&lt;div&gt;&lt;span style=&quot;background-color: transparent; color: light-dark(rgb(0, 0, 0), rgb(255, 255, 255));&quot;&gt;+ salvarBatalha(batalha: Batalha): void&lt;/span&gt;&lt;/div&gt;&lt;/div&gt;&lt;div&gt;&lt;div&gt;+ buscarBatalha(idBatalha: int): Batalha&lt;/div&gt;&lt;div&gt;+ deletarBatalha(idBatalha: int): void&lt;/div&gt;&lt;div&gt;+ listarBatalha(): List&amp;lt;Batalha&amp;gt;&lt;/div&gt;&lt;/div&gt;" style="text;strokeColor=none;fillColor=none;align=left;verticalAlign=top;spacingLeft=4;spacingRight=4;overflow=hidden;rotatable=0;points=[[0,0.5],[1,0.5]];portConstraint=eastwest;whiteSpace=wrap;html=1;" vertex="1" parent="mDxcm6M0Cwam5z7Qv1Eb-23">
          <mxGeometry y="26" width="170" height="130" as="geometry" />
        </mxCell>
        <mxCell id="mDxcm6M0Cwam5z7Qv1Eb-25" value="" style="endArrow=open;endFill=1;endSize=12;html=1;rounded=0;exitX=0.499;exitY=1.046;exitDx=0;exitDy=0;exitPerimeter=0;edgeStyle=orthogonalEdgeStyle;" edge="1" parent="1" source="mDxcm6M0Cwam5z7Qv1Eb-24">
          <mxGeometry width="160" relative="1" as="geometry">
            <mxPoint x="1475" y="-89" as="sourcePoint" />
            <mxPoint x="1345" y="-20" as="targetPoint" />
            <Array as="points">
              <mxPoint x="1200" y="-100" />
              <mxPoint x="1345" y="-100" />
            </Array>
          </mxGeometry>
        </mxCell>
        <mxCell id="L3V3rXhDOu2ZNW8dbt9Z-10" value="" style="endArrow=diamondThin;endFill=1;endSize=24;html=1;rounded=0;exitX=1.002;exitY=0.069;exitDx=0;exitDy=0;exitPerimeter=0;edgeStyle=orthogonalEdgeStyle;entryX=0.183;entryY=0.996;entryDx=0;entryDy=0;entryPerimeter=0;" edge="1" parent="1" source="iHAAdWjE9QPSHCzv0lH9-82" target="JM1ONhOtBjRij3e5JYiU-10">
          <mxGeometry width="160" relative="1" as="geometry">
            <mxPoint x="1550" y="270" as="sourcePoint" />
            <mxPoint x="1660" y="-90" as="targetPoint" />
            <Array as="points">
              <mxPoint x="1560" y="262" />
              <mxPoint x="1560" y="-80" />
              <mxPoint x="1642" y="-80" />
            </Array>
          </mxGeometry>
        </mxCell>
        <mxCell id="L3V3rXhDOu2ZNW8dbt9Z-12" value="" style="endArrow=diamondThin;endFill=1;endSize=24;html=1;rounded=0;edgeStyle=orthogonalEdgeStyle;exitX=0.327;exitY=0.999;exitDx=0;exitDy=0;exitPerimeter=0;" edge="1" parent="1" source="JM1ONhOtBjRij3e5JYiU-10" target="iHAAdWjE9QPSHCzv0lH9-128">
          <mxGeometry width="160" relative="1" as="geometry">
            <mxPoint x="1680" y="-70" as="sourcePoint" />
            <mxPoint x="1460" y="40" as="targetPoint" />
            <Array as="points">
              <mxPoint x="1675" y="-70" />
              <mxPoint x="1600" y="-70" />
              <mxPoint x="1600" y="40" />
            </Array>
          </mxGeometry>
        </mxCell>
        <mxCell id="L3V3rXhDOu2ZNW8dbt9Z-13" value="" style="endArrow=none;html=1;rounded=0;entryX=0.75;entryY=1;entryDx=0;entryDy=0;exitX=0.716;exitY=0;exitDx=0;exitDy=0;exitPerimeter=0;" edge="1" parent="1" source="iHAAdWjE9QPSHCzv0lH9-82" target="iHAAdWjE9QPSHCzv0lH9-128">
          <mxGeometry width="50" height="50" relative="1" as="geometry">
            <mxPoint x="1330" y="220" as="sourcePoint" />
            <mxPoint x="1380" y="170" as="targetPoint" />
          </mxGeometry>
        </mxCell>
      </root>
    </mxGraphModel>
  </diagram>
</mxfile>
